{"asset":{"version":"2.0","generator":"Blockbench 4.7.4 glTF exporter"},"scenes":[{"nodes":[17],"name":"blockbench_export"}],"scene":0,"nodes":[{"translation":[0.031640579399137524,1.6939303540992148,0.3226788090841884],"name":"cuboid","mesh":0},{"translation":[0.031640579399137524,1.6939303540992148,0.3226788090841884],"name":"cuboid","mesh":1},{"rotation":[0,0,-0.03707974447400048,0.9993123098159769],"translation":[0.031640579399137524,1.6939303540992148,0.3226788090841884],"name":"cuboid","mesh":2},{"translation":[0.031640579399137524,1.6939303540992148,0.3226788090841884],"name":"cuboid","mesh":3},{"translation":[0.031640579399137524,1.6939303540992148,0.3226788090841884],"name":"cuboid","mesh":4},{"translation":[0.031640579399137524,1.6939303540992148,0.3226788090841884],"name":"cuboid","mesh":5},{"translation":[0.031640579399137524,1.6939303540992148,0.3226788090841884],"name":"cuboid","mesh":6},{"translation":[0.031640579399137524,1.6939303540992148,0.3226788090841884],"name":"cuboid","mesh":7},{"translation":[0.031640579399137524,1.6939303540992148,0.3226788090841884],"name":"cuboid","mesh":8},{"rotation":[0.7071067811865489,0.7071067811865461,-9.749700380542441e-10,9.749699514586343e-10],"translation":[0.031640579399137524,1.6939303540992148,0.3226788090841884],"name":"cuboid","mesh":9},{"rotation":[0.7071067811865489,0.7071067811865461,-9.749700380542441e-10,9.749699514586343e-10],"translation":[0.031640579399137524,1.6939303540992148,0.3226788090841884],"name":"cuboid","mesh":10},{"rotation":[-0.5000000006894101,-0.4999999993105899,0.50000000068941,0.49999999931058997],"translation":[0.031640579399137524,1.6939303540992148,0.3226788090841884],"name":"cuboid","mesh":11},{"rotation":[-0.5000000006894101,-0.4999999993105899,0.50000000068941,0.49999999931058997],"translation":[0.031640579399137524,1.6939303540992148,0.3226788090841884],"name":"cuboid","mesh":12},{"rotation":[-0.5000000052683584,0.4999999947316416,-0.4999999947316462,0.5000000052683538],"translation":[0.031640579399137524,1.6939303540992148,0.3226788090841884],"name":"cuboid","mesh":13},{"rotation":[-0.5000000052683584,0.4999999947316416,-0.4999999947316462,0.5000000052683538],"translation":[0.031640579399137524,1.6939303540992148,0.3226788090841884],"name":"cuboid","mesh":14},{"rotation":[0,-1,0,6.123233995736766e-17],"translation":[0.031640579399137524,1.6939303540992148,0.3226788090841884],"name":"cuboid","mesh":15},{"translation":[-0.031640579399137524,0.0013821459007852255,-0.3226788090841884],"name":"build1","children":[0,1,2,3,4,5,6,7,8,9,10,11,12,13,14,15]},{"children":[16]}],"bufferViews":[{"buffer":0,"byteOffset":0,"byteLength":1248,"target":34962,"byteStride":12},{"buffer":0,"byteOffset":1248,"byteLength":1248,"target":34962,"byteStride":12},{"buffer":0,"byteOffset":2496,"byteLength":832,"target":34962,"byteStride":8},{"buffer":0,"byteOffset":3328,"byteLength":312,"target":34963},{"buffer":0,"byteOffset":3640,"byteLength":288,"target":34962,"byteStride":12},{"buffer":0,"byteOffset":3928,"byteLength":288,"target":34962,"byteStride":12},{"buffer":0,"byteOffset":4216,"byteLength":192,"target":34962,"byteStride":8},{"buffer":0,"byteOffset":4408,"byteLength":72,"target":34963},{"buffer":0,"byteOffset":4480,"byteLength":288,"target":34962,"byteStride":12},{"buffer":0,"byteOffset":4768,"byteLength":288,"target":34962,"byteStride":12},{"buffer":0,"byteOffset":5056,"byteLength":192,"target":34962,"byteStride":8},{"buffer":0,"byteOffset":5248,"byteLength":72,"target":34963},{"buffer":0,"byteOffset":5320,"byteLength":1056,"target":34962,"byteStride":12},{"buffer":0,"byteOffset":6376,"byteLength":1056,"target":34962,"byteStride":12},{"buffer":0,"byteOffset":7432,"byteLength":704,"target":34962,"byteStride":8},{"buffer":0,"byteOffset":8136,"byteLength":264,"target":34963},{"buffer":0,"byteOffset":8400,"byteLength":1056,"target":34962,"byteStride":12},{"buffer":0,"byteOffset":9456,"byteLength":1056,"target":34962,"byteStride":12},{"buffer":0,"byteOffset":10512,"byteLength":704,"target":34962,"byteStride":8},{"buffer":0,"byteOffset":11216,"byteLength":264,"target":34963},{"buffer":0,"byteOffset":11480,"byteLength":1056,"target":34962,"byteStride":12},{"buffer":0,"byteOffset":12536,"byteLength":1056,"target":34962,"byteStride":12},{"buffer":0,"byteOffset":13592,"byteLength":704,"target":34962,"byteStride":8},{"buffer":0,"byteOffset":14296,"byteLength":264,"target":34963},{"buffer":0,"byteOffset":14560,"byteLength":1056,"target":34962,"byteStride":12},{"buffer":0,"byteOffset":15616,"byteLength":1056,"target":34962,"byteStride":12},{"buffer":0,"byteOffset":16672,"byteLength":704,"target":34962,"byteStride":8},{"buffer":0,"byteOffset":17376,"byteLength":264,"target":34963},{"buffer":0,"byteOffset":17640,"byteLength":1056,"target":34962,"byteStride":12},{"buffer":0,"byteOffset":18696,"byteLength":1056,"target":34962,"byteStride":12},{"buffer":0,"byteOffset":19752,"byteLength":704,"target":34962,"byteStride":8},{"buffer":0,"byteOffset":20456,"byteLength":264,"target":34963},{"buffer":0,"byteOffset":20720,"byteLength":1056,"target":34962,"byteStride":12},{"buffer":0,"byteOffset":21776,"byteLength":1056,"target":34962,"byteStride":12},{"buffer":0,"byteOffset":22832,"byteLength":704,"target":34962,"byteStride":8},{"buffer":0,"byteOffset":23536,"byteLength":264,"target":34963},{"buffer":0,"byteOffset":23800,"byteLength":288,"target":34962,"byteStride":12},{"buffer":0,"byteOffset":24088,"byteLength":288,"target":34962,"byteStride":12},{"buffer":0,"byteOffset":24376,"byteLength":192,"target":34962,"byteStride":8},{"buffer":0,"byteOffset":24568,"byteLength":72,"target":34963},{"buffer":0,"byteOffset":24640,"byteLength":288,"target":34962,"byteStride":12},{"buffer":0,"byteOffset":24928,"byteLength":288,"target":34962,"byteStride":12},{"buffer":0,"byteOffset":25216,"byteLength":192,"target":34962,"byteStride":8},{"buffer":0,"byteOffset":25408,"byteLength":72,"target":34963},{"buffer":0,"byteOffset":25480,"byteLength":288,"target":34962,"byteStride":12},{"buffer":0,"byteOffset":25768,"byteLength":288,"target":34962,"byteStride":12},{"buffer":0,"byteOffset":26056,"byteLength":192,"target":34962,"byteStride":8},{"buffer":0,"byteOffset":26248,"byteLength":72,"target":34963},{"buffer":0,"byteOffset":26320,"byteLength":288,"target":34962,"byteStride":12},{"buffer":0,"byteOffset":26608,"byteLength":288,"target":34962,"byteStride":12},{"buffer":0,"byteOffset":26896,"byteLength":192,"target":34962,"byteStride":8},{"buffer":0,"byteOffset":27088,"byteLength":72,"target":34963},{"buffer":0,"byteOffset":27160,"byteLength":288,"target":34962,"byteStride":12},{"buffer":0,"byteOffset":27448,"byteLength":288,"target":34962,"byteStride":12},{"buffer":0,"byteOffset":27736,"byteLength":192,"target":34962,"byteStride":8},{"buffer":0,"byteOffset":27928,"byteLength":72,"target":34963},{"buffer":0,"byteOffset":28000,"byteLength":288,"target":34962,"byteStride":12},{"buffer":0,"byteOffset":28288,"byteLength":288,"target":34962,"byteStride":12},{"buffer":0,"byteOffset":28576,"byteLength":192,"target":34962,"byteStride":8},{"buffer":0,"byteOffset":28768,"byteLength":72,"target":34963},{"buffer":0,"byteOffset":28840,"byteLength":480,"target":34962,"byteStride":12},{"buffer":0,"byteOffset":29320,"byteLength":480,"target":34962,"byteStride":12},{"buffer":0,"byteOffset":29800,"byteLength":320,"target":34962,"byteStride":8},{"buffer":0,"byteOffset":30120,"byteLength":120,"target":34963}],"buffers":[{"byteLength":30240,"uri":"data:application/octet-stream;base64,"}],"accessors":[{"bufferView":0,"componentType":5126,"count":104,"max":[1.2296875715255737,1.8961586952209473,0.6499741673469543],"min":[-1.2015624046325684,-1.6944663524627686,-0.8437758088111877],"type":"VEC3"},{"bufferView":1,"componentType":5126,"count":104,"max":[1,1,1],"min":[-1,-1,-1],"type":"VEC3"},{"bufferView":2,"componentType":5126,"count":104,"max":[0.515625,0.4765625],"min":[0,0],"type":"VEC2"},{"bufferView":3,"componentType":5123,"count":156,"max":[103],"min":[0],"type":"SCALAR"},{"bufferView":4,"componentType":5126,"count":24,"max":[0.1703125685453415,-0.25696635246276855,-0.7844008207321167],"min":[-1.329687476158142,-0.8194663524627686,-0.9094008207321167],"type":"VEC3"},{"bufferView":5,"componentType":5126,"count":24,"max":[1,1,1],"min":[-1,-1,-1],"type":"VEC3"},{"bufferView":6,"componentType":5126,"count":24,"max":[0.30078125,0.3984375],"min":[0.14453125,0.1640625],"type":"VEC2"},{"bufferView":7,"componentType":5123,"count":36,"max":[23],"min":[0],"type":"SCALAR"},{"bufferView":8,"componentType":5126,"count":24,"max":[1.3311827182769775,0.6621516346931458,-0.7844008207321167],"min":[-0.16881732642650604,0.09965163469314575,-0.9094008207321167],"type":"VEC3"},{"bufferView":9,"componentType":5126,"count":24,"max":[1,1,1],"min":[-1,-1,-1],"type":"VEC3"},{"bufferView":10,"componentType":5126,"count":24,"max":[0.30078125,0.36328125],"min":[0.14453125,0.072265625],"type":"VEC2"},{"bufferView":11,"componentType":5123,"count":36,"max":[23],"min":[0],"type":"SCALAR"},{"bufferView":12,"componentType":5126,"count":88,"max":[-0.3359374403953552,-0.9267579913139343,-0.795859158039093],"min":[-0.8359374403953552,-1.426758050918579,-0.9583591222763062],"type":"VEC3"},{"bufferView":13,"componentType":5126,"count":88,"max":[1,1,1],"min":[-1,-1,-1],"type":"VEC3"},{"bufferView":14,"componentType":5126,"count":88,"max":[0.5546875,0.5078125],"min":[0.0546875,0],"type":"VEC2"},{"bufferView":15,"componentType":5123,"count":132,"max":[87],"min":[0],"type":"SCALAR"},{"bufferView":16,"componentType":5126,"count":88,"max":[0.8828125596046448,-0.17675800621509552,-0.795859158039093],"min":[0.3828125596046448,-0.6767579913139343,-0.9583591222763062],"type":"VEC3"},{"bufferView":17,"componentType":5126,"count":88,"max":[1,1,1],"min":[-1,-1,-1],"type":"VEC3"},{"bufferView":18,"componentType":5126,"count":88,"max":[0.5546875,0.5078125],"min":[0.0546875,0],"type":"VEC2"},{"bufferView":19,"componentType":5123,"count":132,"max":[87],"min":[0],"type":"SCALAR"},{"bufferView":20,"componentType":5126,"count":88,"max":[-0.3359374403953552,0.5107420086860657,-0.795859158039093],"min":[-0.8359374403953552,0.010741988196969032,-0.9583591222763062],"type":"VEC3"},{"bufferView":21,"componentType":5126,"count":88,"max":[1,1,1],"min":[-1,-1,-1],"type":"VEC3"},{"bufferView":22,"componentType":5126,"count":88,"max":[0.5546875,0.5078125],"min":[0.0546875,0],"type":"VEC2"},{"bufferView":23,"componentType":5123,"count":132,"max":[87],"min":[0],"type":"SCALAR"},{"bufferView":24,"componentType":5126,"count":88,"max":[0.8828125596046448,1.323241949081421,-0.795859158039093],"min":[0.3828125596046448,0.8232420086860657,-0.9583591222763062],"type":"VEC3"},{"bufferView":25,"componentType":5126,"count":88,"max":[1,1,1],"min":[-1,-1,-1],"type":"VEC3"},{"bufferView":26,"componentType":5126,"count":88,"max":[0.5546875,0.5078125],"min":[0.0546875,0],"type":"VEC2"},{"bufferView":27,"componentType":5123,"count":132,"max":[87],"min":[0],"type":"SCALAR"},{"bufferView":28,"componentType":5126,"count":88,"max":[-0.3359374403953552,1.323241949081421,-0.795859158039093],"min":[-0.8359374403953552,0.8232420086860657,-0.9583591222763062],"type":"VEC3"},{"bufferView":29,"componentType":5126,"count":88,"max":[1,1,1],"min":[-1,-1,-1],"type":"VEC3"},{"bufferView":30,"componentType":5126,"count":88,"max":[0.65625,0.5078125],"min":[0.0546875,0],"type":"VEC2"},{"bufferView":31,"componentType":5123,"count":132,"max":[87],"min":[0],"type":"SCALAR"},{"bufferView":32,"componentType":5126,"count":88,"max":[0.8828125596046448,-0.9267579913139343,-0.795859158039093],"min":[0.3828125596046448,-1.426758050918579,-0.9583591222763062],"type":"VEC3"},{"bufferView":33,"componentType":5126,"count":88,"max":[1,1,1],"min":[-1,-1,-1],"type":"VEC3"},{"bufferView":34,"componentType":5126,"count":88,"max":[0.65625,0.5078125],"min":[0.0546875,0],"type":"VEC2"},{"bufferView":35,"componentType":5123,"count":132,"max":[87],"min":[0],"type":"SCALAR"},{"bufferView":36,"componentType":5126,"count":24,"max":[0.1274087131023407,-0.609375,-0.5687242746353149],"min":[-0.21009129285812378,-1.109375,-0.784349262714386],"type":"VEC3"},{"bufferView":37,"componentType":5126,"count":24,"max":[1,1,1],"min":[-1,-1,-1],"type":"VEC3"},{"bufferView":38,"componentType":5126,"count":24,"max":[0.5,0.4765625],"min":[0.0859375,0.2578125],"type":"VEC2"},{"bufferView":39,"componentType":5123,"count":36,"max":[23],"min":[0],"type":"SCALAR"},{"bufferView":40,"componentType":5126,"count":24,"max":[0.6742836833000183,0.96875,-0.5687242746353149],"min":[0.3367837071418762,0.46875,-0.784349262714386],"type":"VEC3"},{"bufferView":41,"componentType":5126,"count":24,"max":[1,1,1],"min":[-1,-1,-1],"type":"VEC3"},{"bufferView":42,"componentType":5126,"count":24,"max":[0.5,0.4765625],"min":[0.0859375,0.2578125],"type":"VEC2"},{"bufferView":43,"componentType":5123,"count":36,"max":[23],"min":[0],"type":"SCALAR"},{"bufferView":44,"componentType":5126,"count":24,"max":[-0.3725912868976593,-0.09841176122426987,-1.173437476158142],"min":[-0.7100912928581238,-0.5984117388725281,-1.389062523841858],"type":"VEC3"},{"bufferView":45,"componentType":5126,"count":24,"max":[1,1,1],"min":[-1,-1,-1],"type":"VEC3"},{"bufferView":46,"componentType":5126,"count":24,"max":[0.5,0.4765625],"min":[0.0859375,0.2578125],"type":"VEC2"},{"bufferView":47,"componentType":5123,"count":36,"max":[23],"min":[0],"type":"SCALAR"},{"bufferView":48,"componentType":5126,"count":24,"max":[1.564908742904663,0.7140882611274719,-1.173437476158142],"min":[1.227408766746521,0.21408823132514954,-1.389062523841858],"type":"VEC3"},{"bufferView":49,"componentType":5126,"count":24,"max":[1,1,1],"min":[-1,-1,-1],"type":"VEC3"},{"bufferView":50,"componentType":5126,"count":24,"max":[0.5,0.4765625],"min":[0.0859375,0.2578125],"type":"VEC2"},{"bufferView":51,"componentType":5123,"count":36,"max":[23],"min":[0],"type":"SCALAR"},{"bufferView":52,"componentType":5126,"count":24,"max":[1.085091233253479,0.7922132611274719,-1.173437476158142],"min":[0.7475912570953369,0.29221323132514954,-1.389062523841858],"type":"VEC3"},{"bufferView":53,"componentType":5126,"count":24,"max":[1,1,1],"min":[-1,-1,-1],"type":"VEC3"},{"bufferView":54,"componentType":5126,"count":24,"max":[0.5,0.4765625],"min":[0.0859375,0.2578125],"type":"VEC2"},{"bufferView":55,"componentType":5123,"count":36,"max":[23],"min":[0],"type":"SCALAR"},{"bufferView":56,"componentType":5126,"count":24,"max":[-0.602408766746521,0.12033823877573013,-1.173437476158142],"min":[-0.9399087429046631,-0.37966176867485046,-1.389062523841858],"type":"VEC3"},{"bufferView":57,"componentType":5126,"count":24,"max":[1,1,1],"min":[-1,-1,-1],"type":"VEC3"},{"bufferView":58,"componentType":5126,"count":24,"max":[0.5,0.4765625],"min":[0.0859375,0.2578125],"type":"VEC2"},{"bufferView":59,"componentType":5123,"count":36,"max":[23],"min":[0],"type":"SCALAR"},{"bufferView":60,"componentType":5126,"count":40,"max":[0.8734374046325684,-1.1524180173873901,-0.5594524145126343],"min":[0.22343742847442627,-1.6944663524627686,-1.137160301208496],"type":"VEC3"},{"bufferView":61,"componentType":5126,"count":40,"max":[1,0.9625234603881836,1],"min":[-1,-1,-1],"type":"VEC3"},{"bufferView":62,"componentType":5126,"count":40,"max":[0.3486066460609436,0.3589843511581421],"min":[0,0],"type":"VEC2"},{"bufferView":63,"componentType":5123,"count":60,"max":[39],"min":[0],"type":"SCALAR"}],"materials":[{"pbrMetallicRoughness":{"metallicFactor":0,"roughnessFactor":1,"baseColorTexture":{"index":0}},"alphaMode":"MASK","alphaCutoff":0.05,"doubleSided":true},{"pbrMetallicRoughness":{"metallicFactor":0,"roughnessFactor":1,"baseColorTexture":{"index":1}},"alphaMode":"MASK","alphaCutoff":0.05,"doubleSided":true}],"textures":[{"sampler":0,"source":0,"name":"buildings.png"},{"sampler":1,"source":1,"name":"city_props.png"}],"samplers":[{"magFilter":9728,"minFilter":9728,"wrapS":33071,"wrapT":33071},{"magFilter":9728,"minFilter":9728,"wrapS":33071,"wrapT":33071}],"images":[{"mimeType":"image/png","uri":"data:image/png;base64,"},{"mimeType":"image/png","uri":"data:image/png;base64,"}],"meshes":[{"primitives":[{"mode":4,"attributes":{"POSITION":0,"NORMAL":1,"TEXCOORD_0":2},"indices":3,"material":0}]},{"primitives":[{"mode":4,"attributes":{"POSITION":4,"NORMAL":5,"TEXCOORD_0":6},"indices":7,"material":0}]},{"primitives":[{"mode":4,"attributes":{"POSITION":8,"NORMAL":9,"TEXCOORD_0":10},"indices":11,"material":0}]},{"primitives":[{"mode":4,"attributes":{"POSITION":12,"NORMAL":13,"TEXCOORD_0":14},"indices":15,"material":1}]},{"primitives":[{"mode":4,"attributes":{"POSITION":16,"NORMAL":17,"TEXCOORD_0":18},"indices":19,"material":1}]},{"primitives":[{"mode":4,"attributes":{"POSITION":20,"NORMAL":21,"TEXCOORD_0":22},"indices":23,"material":1}]},{"primitives":[{"mode":4,"attributes":{"POSITION":24,"NORMAL":25,"TEXCOORD_0":26},"indices":27,"material":1}]},{"primitives":[{"mode":4,"attributes":{"POSITION":28,"NORMAL":29,"TEXCOORD_0":30},"indices":31,"material":1}]},{"primitives":[{"mode":4,"attributes":{"POSITION":32,"NORMAL":33,"TEXCOORD_0":34},"indices":35,"material":1}]},{"primitives":[{"mode":4,"attributes":{"POSITION":36,"NORMAL":37,"TEXCOORD_0":38},"indices":39,"material":1}]},{"primitives":[{"mode":4,"attributes":{"POSITION":40,"NORMAL":41,"TEXCOORD_0":42},"indices":43,"material":1}]},{"primitives":[{"mode":4,"attributes":{"POSITION":44,"NORMAL":45,"TEXCOORD_0":46},"indices":47,"material":1}]},{"primitives":[{"mode":4,"attributes":{"POSITION":48,"NORMAL":49,"TEXCOORD_0":50},"indices":51,"material":1}]},{"primitives":[{"mode":4,"attributes":{"POSITION":52,"NORMAL":53,"TEXCOORD_0":54},"indices":55,"material":1}]},{"primitives":[{"mode":4,"attributes":{"POSITION":56,"NORMAL":57,"TEXCOORD_0":58},"indices":59,"material":1}]},{"primitives":[{"mode":4,"attributes":{"POSITION":60,"NORMAL":61,"TEXCOORD_0":62},"indices":63,"material":1}]}]}