{"asset":{"version":"2.0","generator":"Blockbench 4.7.4 glTF exporter"},"scenes":[{"nodes":[5],"name":"blockbench_export"}],"scene":0,"nodes":[{"rotation":[-0.7071067811865475,0,0,0.7071067811865476],"name":"tube","mesh":0},{"rotation":[0.7071067811865475,0,0,0.7071067811865476],"name":"cuboid","mesh":1},{"translation":[0,-0.1875,0.1875],"name":"cuboid","mesh":2},{"rotation":[0.4999999999999997,0.4999999999999994,-0.5000000000000003,0.5000000000000006],"translation":[0,-0.1875,0.1875],"name":"torus","mesh":3},{"translation":[0,0.125,-0.1875],"name":"gun","children":[0,1,2,3]},{"children":[4]}],"bufferViews":[{"buffer":0,"byteOffset":0,"byteLength":3456,"target":34962,"byteStride":12},{"buffer":0,"byteOffset":3456,"byteLength":3456,"target":34962,"byteStride":12},{"buffer":0,"byteOffset":6912,"byteLength":2304,"target":34962,"byteStride":8},{"buffer":0,"byteOffset":9216,"byteLength":864,"target":34963},{"buffer":0,"byteOffset":10080,"byteLength":768,"target":34962,"byteStride":12},{"buffer":0,"byteOffset":10848,"byteLength":768,"target":34962,"byteStride":12},{"buffer":0,"byteOffset":11616,"byteLength":512,"target":34962,"byteStride":8},{"buffer":0,"byteOffset":12128,"byteLength":192,"target":34963},{"buffer":0,"byteOffset":12320,"byteLength":768,"target":34962,"byteStride":12},{"buffer":0,"byteOffset":13088,"byteLength":768,"target":34962,"byteStride":12},{"buffer":0,"byteOffset":13856,"byteLength":512,"target":34962,"byteStride":8},{"buffer":0,"byteOffset":14368,"byteLength":192,"target":34963},{"buffer":0,"byteOffset":14560,"byteLength":1296,"target":34962,"byteStride":12},{"buffer":0,"byteOffset":15856,"byteLength":1296,"target":34962,"byteStride":12},{"buffer":0,"byteOffset":17152,"byteLength":864,"target":34962,"byteStride":8},{"buffer":0,"byteOffset":18016,"byteLength":288,"target":34963},{"buffer":0,"byteOffset":18304,"byteLength":36},{"buffer":0,"byteOffset":18340,"byteLength":144},{"buffer":0,"byteOffset":18484,"byteLength":12},{"buffer":0,"byteOffset":18496,"byteLength":36}],"buffers":[{"byteLength":18532,"uri":"data:application/octet-stream;base64,"}],"accessors":[{"bufferView":0,"componentType":5126,"count":288,"max":[0.25,0.5,0.75],"min":[-0.25,-0.5,0.25],"type":"VEC3"},{"bufferView":1,"componentType":5126,"count":288,"max":[1,0.9082358479499817,1],"min":[-1,-0.936491847038269,-1],"type":"VEC3"},{"bufferView":2,"componentType":5126,"count":288,"max":[1,0.875],"min":[0,0],"type":"VEC2"},{"bufferView":3,"componentType":5123,"count":432,"max":[287],"min":[0],"type":"SCALAR"},{"bufferView":4,"componentType":5126,"count":64,"max":[0.1875,0.6875,-0.3125],"min":[-0.1875,0.5,-0.6875],"type":"VEC3"},{"bufferView":5,"componentType":5126,"count":64,"max":[0.9701424837112427,1,0.9701424837112427],"min":[-0.9701424837112427,-1,-0.9701424837112427],"type":"VEC3"},{"bufferView":6,"componentType":5126,"count":64,"max":[0.9375,0.4375],"min":[0.3125,0],"type":"VEC2"},{"bufferView":7,"componentType":5123,"count":96,"max":[63],"min":[0],"type":"SCALAR"},{"bufferView":8,"componentType":5126,"count":64,"max":[0.125,0.5625,0.47968751192092896],"min":[-0.125,0.0625,0.33281248807907104],"type":"VEC3"},{"bufferView":9,"componentType":5126,"count":64,"max":[1,1,1],"min":[-1,-0.8944271802902222,-1],"type":"VEC3"},{"bufferView":10,"componentType":5126,"count":64,"max":[0.8648437261581421,0.740384578704834],"min":[0.375,0],"type":"VEC2"},{"bufferView":11,"componentType":5123,"count":96,"max":[63],"min":[0],"type":"SCALAR"},{"bufferView":12,"componentType":5126,"count":108,"max":[-0.03962341323494911,0.06764951348304749,-0.2271234095096588],"min":[-0.34902873635292053,-0.06764951348304749,-0.44218748807907104],"type":"VEC3"},{"bufferView":13,"componentType":5126,"count":108,"max":[1,0.8480290174484253,1],"min":[-1,-0.8480290174484253,-1],"type":"VEC3"},{"bufferView":14,"componentType":5126,"count":108,"max":[0.7725183963775635,0.49049168825149536],"min":[0.06668593734502792,0],"type":"VEC2"},{"bufferView":15,"componentType":5123,"count":144,"max":[107],"min":[0],"type":"SCALAR"},{"bufferView":16,"componentType":5126,"count":9,"max":[0.5],"min":[0],"type":"SCALAR"},{"bufferView":17,"componentType":5126,"count":9,"max":[0.19394639134407043,0,0.10681452602148056,1],"min":[0,-0.02121938392519951,-0.03741903603076935,0.9749488234519958],"type":"VEC4"},{"bufferView":18,"componentType":5126,"count":3,"max":[0.5],"min":[0],"type":"SCALAR"},{"bufferView":19,"componentType":5126,"count":3,"max":[0,0.296875,0.125],"min":[0,0.125,-0.1875],"type":"VEC3"}],"materials":[{"pbrMetallicRoughness":{"metallicFactor":0,"roughnessFactor":1,"baseColorTexture":{"index":0}},"alphaMode":"MASK","alphaCutoff":0.05,"doubleSided":true}],"textures":[{"sampler":0,"source":0,"name":"gun"}],"samplers":[{"magFilter":9728,"minFilter":9728,"wrapS":33071,"wrapT":33071}],"images":[{"mimeType":"image/png","uri":"data:image/png;base64,"}],"meshes":[{"primitives":[{"mode":4,"attributes":{"POSITION":0,"NORMAL":1,"TEXCOORD_0":2},"indices":3,"material":0}]},{"primitives":[{"mode":4,"attributes":{"POSITION":4,"NORMAL":5,"TEXCOORD_0":6},"indices":7,"material":0}]},{"primitives":[{"mode":4,"attributes":{"POSITION":8,"NORMAL":9,"TEXCOORD_0":10},"indices":11,"material":0}]},{"primitives":[{"mode":4,"attributes":{"POSITION":12,"NORMAL":13,"TEXCOORD_0":14},"indices":15,"material":0}]}],"animations":[{"name":"gun_recoil.gun","samplers":[{"input":16,"output":17,"interpolation":"LINEAR"},{"input":18,"output":19,"interpolation":"LINEAR"}],"channels":[{"sampler":0,"target":{"node":4,"path":"rotation"}},{"sampler":1,"target":{"node":4,"path":"translation"}}]}]}