{"asset":{"version":"2.0","generator":"Blockbench 4.7.4 glTF exporter"},"scenes":[{"nodes":[27],"name":"blockbench_export"}],"scene":0,"nodes":[{"translation":[-0.34970037873289495,0.2890625,0.1443927628937856],"name":"leftWing2"},{"translation":[2.64338815386942e-18,-0.5128348214285714,0.3683035714285715],"name":"cuboid","mesh":0},{"translation":[5.995638013844839e-18,-0.5562500000000004,-0.5002539062500013],"name":"tube","mesh":1},{"translation":[5.995638013844839e-18,-0.5562500000000004,-0.5002539062500013],"name":"cuboid","mesh":2},{"translation":[-3.352249859975419e-18,0.04341517857142896,0.8685574776785728],"name":"engine","children":[2,3]},{"translation":[0.5376678505900119,-0.2943920482054323,-0.00435902698193763],"name":"cuboid","mesh":3},{"rotation":[0,-0.23768589232617307,0,0.9713420698132614],"translation":[0.037667850590011875,-0.0443920482054323,-0.6918590269819376],"name":"cuboid","mesh":4},{"rotation":[0,0.06540312923014306,0,0.9978589232386035],"translation":[-0.21233214940998812,-0.0443920482054323,-0.00435902698193763],"name":"cuboid","mesh":5},{"translation":[0.5376678505900119,-0.2943920482054323,-0.00435902698193763],"name":"cuboid","mesh":6},{"translation":[0.5376678505900119,-0.3834545482054323,-0.00435902698193763],"name":"cuboid","mesh":7},{"translation":[0.5376678505900119,-0.2943920482054323,-0.00435902698193763],"name":"cuboid","mesh":8},{"translation":[0.5376678505900119,-0.2943920482054323,-0.00435902698193763],"name":"cuboid","mesh":9},{"rotation":[0,0,0.11320321376790671,0.9935718556765875],"translation":[0.053292850590011875,-0.2162670482054323,0.9331409730180624],"name":"cuboid","mesh":10},{"rotation":[-0.08770560023256191,0.7016464276531449,0.08770560321022691,0.7016464532903706],"translation":[0.18796747185711693,-0.0053295482054323,0.14003373591184798],"name":"cuboid","mesh":11},{"translation":[-0.5376678505900119,-0.2184427732231391,0.37266259841050914],"name":"leftWing","children":[5,6,7,8,9,10,11,12,13]},{"translation":[-0.5351558305053069,-0.29582366892913453,-0.003317360527547275],"name":"cuboid","mesh":12},{"rotation":[0,0.23768589232617307,0,0.9713420698132614],"translation":[-0.035155830505306906,-0.04582366892913453,-0.6908173605275473],"name":"cuboid","mesh":13},{"rotation":[0,-0.06540312923014306,0,0.9978589232386035],"translation":[0.2148441694946931,-0.04582366892913453,-0.003317360527547275],"name":"cuboid","mesh":14},{"translation":[-0.5351558305053069,-0.29582366892913453,-0.003317360527547275],"name":"cuboid","mesh":15},{"translation":[-0.5351558305053069,-0.3848861689291345,-0.003317360527547275],"name":"cuboid","mesh":16},{"translation":[-0.5351558305053069,-0.29582366892913453,-0.003317360527547275],"name":"cuboid","mesh":17},{"translation":[-0.5351558305053069,-0.29582366892913453,-0.003317360527547275],"name":"cuboid","mesh":18},{"rotation":[0,0,-0.11320321376790671,0.9935718556765875],"translation":[-0.050780830505306906,-0.21769866892913453,0.9341826394724527],"name":"cuboid","mesh":19},{"rotation":[-0.08770560023256191,-0.7016464276531449,-0.08770560321022691,0.7016464532903706],"translation":[-0.18545545177241196,-0.006761168929134531,0.14107540236623833],"name":"cuboid","mesh":20},{"translation":[0.5351558305053069,-0.21701115249943687,0.3716209319561188],"name":"rightWing","children":[15,16,17,18,19,20,21,22,23]},{"translation":[-2.64338815386942e-18,0.5753348214285714,-0.3683035714285715],"name":"body","children":[1,4,14,24]},{"name":"spaceship","children":[25]},{"children":[0,26]}],"bufferViews":[{"buffer":0,"byteOffset":0,"byteLength":1920,"target":34962,"byteStride":12},{"buffer":0,"byteOffset":1920,"byteLength":1920,"target":34962,"byteStride":12},{"buffer":0,"byteOffset":3840,"byteLength":1280,"target":34962,"byteStride":8},{"buffer":0,"byteOffset":5120,"byteLength":480,"target":34963},{"buffer":0,"byteOffset":5600,"byteLength":6144,"target":34962,"byteStride":12},{"buffer":0,"byteOffset":11744,"byteLength":6144,"target":34962,"byteStride":12},{"buffer":0,"byteOffset":17888,"byteLength":4096,"target":34962,"byteStride":8},{"buffer":0,"byteOffset":21984,"byteLength":1536,"target":34963},{"buffer":0,"byteOffset":23520,"byteLength":3744,"target":34962,"byteStride":12},{"buffer":0,"byteOffset":27264,"byteLength":3744,"target":34962,"byteStride":12},{"buffer":0,"byteOffset":31008,"byteLength":2496,"target":34962,"byteStride":8},{"buffer":0,"byteOffset":33504,"byteLength":936,"target":34963},{"buffer":0,"byteOffset":34440,"byteLength":480,"target":34962,"byteStride":12},{"buffer":0,"byteOffset":34920,"byteLength":480,"target":34962,"byteStride":12},{"buffer":0,"byteOffset":35400,"byteLength":320,"target":34962,"byteStride":8},{"buffer":0,"byteOffset":35720,"byteLength":120,"target":34963},{"buffer":0,"byteOffset":35840,"byteLength":288,"target":34962,"byteStride":12},{"buffer":0,"byteOffset":36128,"byteLength":288,"target":34962,"byteStride":12},{"buffer":0,"byteOffset":36416,"byteLength":192,"target":34962,"byteStride":8},{"buffer":0,"byteOffset":36608,"byteLength":72,"target":34963},{"buffer":0,"byteOffset":36680,"byteLength":672,"target":34962,"byteStride":12},{"buffer":0,"byteOffset":37352,"byteLength":672,"target":34962,"byteStride":12},{"buffer":0,"byteOffset":38024,"byteLength":448,"target":34962,"byteStride":8},{"buffer":0,"byteOffset":38472,"byteLength":168,"target":34963},{"buffer":0,"byteOffset":38640,"byteLength":288,"target":34962,"byteStride":12},{"buffer":0,"byteOffset":38928,"byteLength":288,"target":34962,"byteStride":12},{"buffer":0,"byteOffset":39216,"byteLength":192,"target":34962,"byteStride":8},{"buffer":0,"byteOffset":39408,"byteLength":72,"target":34963},{"buffer":0,"byteOffset":39480,"byteLength":288,"target":34962,"byteStride":12},{"buffer":0,"byteOffset":39768,"byteLength":288,"target":34962,"byteStride":12},{"buffer":0,"byteOffset":40056,"byteLength":192,"target":34962,"byteStride":8},{"buffer":0,"byteOffset":40248,"byteLength":72,"target":34963},{"buffer":0,"byteOffset":40320,"byteLength":1440,"target":34962,"byteStride":12},{"buffer":0,"byteOffset":41760,"byteLength":1440,"target":34962,"byteStride":12},{"buffer":0,"byteOffset":43200,"byteLength":960,"target":34962,"byteStride":8},{"buffer":0,"byteOffset":44160,"byteLength":360,"target":34963},{"buffer":0,"byteOffset":44520,"byteLength":1632,"target":34962,"byteStride":12},{"buffer":0,"byteOffset":46152,"byteLength":1632,"target":34962,"byteStride":12},{"buffer":0,"byteOffset":47784,"byteLength":1088,"target":34962,"byteStride":8},{"buffer":0,"byteOffset":48872,"byteLength":408,"target":34963},{"buffer":0,"byteOffset":49280,"byteLength":480,"target":34962,"byteStride":12},{"buffer":0,"byteOffset":49760,"byteLength":480,"target":34962,"byteStride":12},{"buffer":0,"byteOffset":50240,"byteLength":320,"target":34962,"byteStride":8},{"buffer":0,"byteOffset":50560,"byteLength":120,"target":34963},{"buffer":0,"byteOffset":50680,"byteLength":288,"target":34962,"byteStride":12},{"buffer":0,"byteOffset":50968,"byteLength":288,"target":34962,"byteStride":12},{"buffer":0,"byteOffset":51256,"byteLength":192,"target":34962,"byteStride":8},{"buffer":0,"byteOffset":51448,"byteLength":72,"target":34963},{"buffer":0,"byteOffset":51520,"byteLength":480,"target":34962,"byteStride":12},{"buffer":0,"byteOffset":52000,"byteLength":480,"target":34962,"byteStride":12},{"buffer":0,"byteOffset":52480,"byteLength":320,"target":34962,"byteStride":8},{"buffer":0,"byteOffset":52800,"byteLength":120,"target":34963},{"buffer":0,"byteOffset":52920,"byteLength":288,"target":34962,"byteStride":12},{"buffer":0,"byteOffset":53208,"byteLength":288,"target":34962,"byteStride":12},{"buffer":0,"byteOffset":53496,"byteLength":192,"target":34962,"byteStride":8},{"buffer":0,"byteOffset":53688,"byteLength":72,"target":34963},{"buffer":0,"byteOffset":53760,"byteLength":672,"target":34962,"byteStride":12},{"buffer":0,"byteOffset":54432,"byteLength":672,"target":34962,"byteStride":12},{"buffer":0,"byteOffset":55104,"byteLength":448,"target":34962,"byteStride":8},{"buffer":0,"byteOffset":55552,"byteLength":168,"target":34963},{"buffer":0,"byteOffset":55720,"byteLength":288,"target":34962,"byteStride":12},{"buffer":0,"byteOffset":56008,"byteLength":288,"target":34962,"byteStride":12},{"buffer":0,"byteOffset":56296,"byteLength":192,"target":34962,"byteStride":8},{"buffer":0,"byteOffset":56488,"byteLength":72,"target":34963},{"buffer":0,"byteOffset":56560,"byteLength":288,"target":34962,"byteStride":12},{"buffer":0,"byteOffset":56848,"byteLength":288,"target":34962,"byteStride":12},{"buffer":0,"byteOffset":57136,"byteLength":192,"target":34962,"byteStride":8},{"buffer":0,"byteOffset":57328,"byteLength":72,"target":34963},{"buffer":0,"byteOffset":57400,"byteLength":1440,"target":34962,"byteStride":12},{"buffer":0,"byteOffset":58840,"byteLength":1440,"target":34962,"byteStride":12},{"buffer":0,"byteOffset":60280,"byteLength":960,"target":34962,"byteStride":8},{"buffer":0,"byteOffset":61240,"byteLength":360,"target":34963},{"buffer":0,"byteOffset":61600,"byteLength":1632,"target":34962,"byteStride":12},{"buffer":0,"byteOffset":63232,"byteLength":1632,"target":34962,"byteStride":12},{"buffer":0,"byteOffset":64864,"byteLength":1088,"target":34962,"byteStride":8},{"buffer":0,"byteOffset":65952,"byteLength":408,"target":34963},{"buffer":0,"byteOffset":66360,"byteLength":480,"target":34962,"byteStride":12},{"buffer":0,"byteOffset":66840,"byteLength":480,"target":34962,"byteStride":12},{"buffer":0,"byteOffset":67320,"byteLength":320,"target":34962,"byteStride":8},{"buffer":0,"byteOffset":67640,"byteLength":120,"target":34963},{"buffer":0,"byteOffset":67760,"byteLength":288,"target":34962,"byteStride":12},{"buffer":0,"byteOffset":68048,"byteLength":288,"target":34962,"byteStride":12},{"buffer":0,"byteOffset":68336,"byteLength":192,"target":34962,"byteStride":8},{"buffer":0,"byteOffset":68528,"byteLength":72,"target":34963}],"buffers":[{"byteLength":68600,"uri":"data:application/octet-stream;base64,"}],"accessors":[{"bufferView":0,"componentType":5126,"count":160,"max":[0.534375011920929,0.8125,0.4749999940395355],"min":[-0.534375011920929,0.265625,-1.15625],"type":"VEC3"},{"bufferView":1,"componentType":5126,"count":160,"max":[0.9351100325584412,1,0.9957714080810547],"min":[-0.9351100325584412,-1,-1],"type":"VEC3"},{"bufferView":2,"componentType":5126,"count":160,"max":[0.7153648734092712,0.564453125],"min":[0.001953125,0],"type":"VEC2"},{"bufferView":3,"componentType":5123,"count":240,"max":[159],"min":[0],"type":"SCALAR"},{"bufferView":4,"componentType":5126,"count":512,"max":[0.5,0.840624988079071,1.21875],"min":[-0.5,0.265625,0.21875],"type":"VEC3"},{"bufferView":5,"componentType":5126,"count":512,"max":[1,1,1],"min":[-1,-1,-1],"type":"VEC3"},{"bufferView":6,"componentType":5126,"count":512,"max":[0.953527569770813,0.7109375],"min":[0.05574062466621399,0],"type":"VEC2"},{"bufferView":7,"componentType":5123,"count":768,"max":[511],"min":[0],"type":"SCALAR"},{"bufferView":8,"componentType":5126,"count":312,"max":[0.4000000059604645,0.8062499761581421,1.860937476158142],"min":[-0.4000000059604645,0.22499999403953552,1.0281250476837158],"type":"VEC3"},{"bufferView":9,"componentType":5126,"count":312,"max":[1,1,1],"min":[-1,-1,-0.9861798882484436],"type":"VEC3"},{"bufferView":10,"componentType":5126,"count":312,"max":[0.7572351694107056,0.7410328388214111],"min":[0.0016406249487772584,0],"type":"VEC2"},{"bufferView":11,"componentType":5123,"count":468,"max":[311],"min":[0],"type":"SCALAR"},{"bufferView":12,"componentType":5126,"count":40,"max":[-0.5,0.375,-0.6875],"min":[-1,0.125,-2.96875],"type":"VEC3"},{"bufferView":13,"componentType":5126,"count":40,"max":[1,1,1],"min":[-1,-1,-1],"type":"VEC3"},{"bufferView":14,"componentType":5126,"count":40,"max":[0.71875,0.71875],"min":[0.0078125,0.125],"type":"VEC2"},{"bufferView":15,"componentType":5123,"count":60,"max":[39],"min":[0],"type":"SCALAR"},{"bufferView":16,"componentType":5126,"count":24,"max":[0,0.09375,0.65625],"min":[-0.1875,-0.09375,0],"type":"VEC3"},{"bufferView":17,"componentType":5126,"count":24,"max":[1,1,1],"min":[-1,-1,-1],"type":"VEC3"},{"bufferView":18,"componentType":5126,"count":24,"max":[0.71875,0.7109375],"min":[0.1328125,0.2109375],"type":"VEC2"},{"bufferView":19,"componentType":5123,"count":36,"max":[23],"min":[0],"type":"SCALAR"},{"bufferView":20,"componentType":5126,"count":56,"max":[0.21718749403953552,0.19374999403953552,0.21718749403953552],"min":[-0.21718749403953552,-0.19374999403953552,-0.21718749403953552],"type":"VEC3"},{"bufferView":21,"componentType":5126,"count":56,"max":[1,1,1],"min":[-1,-1,-1],"type":"VEC3"},{"bufferView":22,"componentType":5126,"count":56,"max":[0.747976541519165,0.71875],"min":[0.04889843612909317,0],"type":"VEC2"},{"bufferView":23,"componentType":5123,"count":84,"max":[55],"min":[0],"type":"SCALAR"},{"bufferView":24,"componentType":5126,"count":24,"max":[-0.823437511920929,0.4078125059604645,0.3062500059604645],"min":[-1.1453125476837158,0.09218750149011612,0.24375000596046448],"type":"VEC3"},{"bufferView":25,"componentType":5126,"count":24,"max":[1,1,1],"min":[-1,-1,-1],"type":"VEC3"},{"bufferView":26,"componentType":5126,"count":24,"max":[0.7421875,0.7421875],"min":[0.015625,0.0625],"type":"VEC2"},{"bufferView":27,"componentType":5123,"count":36,"max":[23],"min":[0],"type":"SCALAR"},{"bufferView":28,"componentType":5126,"count":24,"max":[-0.9234374761581421,0.453125,0.15625],"min":[-1.3125,0.40625,-0.140625],"type":"VEC3"},{"bufferView":29,"componentType":5126,"count":24,"max":[1,1,1],"min":[-1,-1,-1],"type":"VEC3"},{"bufferView":30,"componentType":5126,"count":24,"max":[0.7421875,0.7109375],"min":[0.140625,0],"type":"VEC2"},{"bufferView":31,"componentType":5123,"count":36,"max":[23],"min":[0],"type":"SCALAR"},{"bufferView":32,"componentType":5126,"count":120,"max":[-0.390625,0.84375,1.265625],"min":[-0.953125,0.34375,0.5],"type":"VEC3"},{"bufferView":33,"componentType":5126,"count":120,"max":[1,1,1],"min":[-1,-1,-1],"type":"VEC3"},{"bufferView":34,"componentType":5126,"count":120,"max":[0.7402417063713074,0.751171886920929],"min":[0,0],"type":"VEC2"},{"bufferView":35,"componentType":5123,"count":180,"max":[119],"min":[0],"type":"SCALAR"},{"bufferView":36,"componentType":5126,"count":136,"max":[-1.09375,0.4375,0.5328124761581421],"min":[-1.46875,-0.0625,-0.8500000238418579],"type":"VEC3"},{"bufferView":37,"componentType":5126,"count":136,"max":[1,1,1],"min":[-1,-1,-0.9230769276618958],"type":"VEC3"},{"bufferView":38,"componentType":5126,"count":136,"max":[0.7471992373466492,0.7421875],"min":[0,0],"type":"VEC2"},{"bufferView":39,"componentType":5123,"count":204,"max":[135],"min":[0],"type":"SCALAR"},{"bufferView":40,"componentType":5126,"count":40,"max":[0.046875,0.19218750298023224,0.746874988079071],"min":[-0.4921875,0.11406250298023224,-0.5874999761581421],"type":"VEC3"},{"bufferView":41,"componentType":5126,"count":40,"max":[1,1,1],"min":[-1,-1,-1],"type":"VEC3"},{"bufferView":42,"componentType":5126,"count":40,"max":[0.84375,0.5234375],"min":[0.1484375,0.046875],"type":"VEC2"},{"bufferView":43,"componentType":5123,"count":60,"max":[39],"min":[0],"type":"SCALAR"},{"bufferView":44,"componentType":5126,"count":24,"max":[0.328125,0.08437500149011612,-0.07343749701976776],"min":[0.01875000074505806,-0.02500000037252903,-0.3125],"type":"VEC3"},{"bufferView":45,"componentType":5126,"count":24,"max":[1,1,1],"min":[-1,-1,-1],"type":"VEC3"},{"bufferView":46,"componentType":5126,"count":24,"max":[0.734375,0.703125],"min":[0.0546875,0.1171875],"type":"VEC2"},{"bufferView":47,"componentType":5123,"count":36,"max":[23],"min":[0],"type":"SCALAR"},{"bufferView":48,"componentType":5126,"count":40,"max":[1,0.375,-0.6875],"min":[0.5,0.125,-2.96875],"type":"VEC3"},{"bufferView":49,"componentType":5126,"count":40,"max":[1,1,1],"min":[-1,-1,-1],"type":"VEC3"},{"bufferView":50,"componentType":5126,"count":40,"max":[0.7265625,0.71875],"min":[0.0078125,0.125],"type":"VEC2"},{"bufferView":51,"componentType":5123,"count":60,"max":[39],"min":[0],"type":"SCALAR"},{"bufferView":52,"componentType":5126,"count":24,"max":[0.1875,0.09375,0.65625],"min":[0,-0.09375,0],"type":"VEC3"},{"bufferView":53,"componentType":5126,"count":24,"max":[1,1,1],"min":[-1,-1,-1],"type":"VEC3"},{"bufferView":54,"componentType":5126,"count":24,"max":[0.71875,0.7109375],"min":[0.1328125,0.2109375],"type":"VEC2"},{"bufferView":55,"componentType":5123,"count":36,"max":[23],"min":[0],"type":"SCALAR"},{"bufferView":56,"componentType":5126,"count":56,"max":[0.21718749403953552,0.19374999403953552,0.21718749403953552],"min":[-0.21718749403953552,-0.19374999403953552,-0.21718749403953552],"type":"VEC3"},{"bufferView":57,"componentType":5126,"count":56,"max":[1,1,1],"min":[-1,-1,-1],"type":"VEC3"},{"bufferView":58,"componentType":5126,"count":56,"max":[0.747976541519165,0.71875],"min":[0.04889843612909317,0],"type":"VEC2"},{"bufferView":59,"componentType":5123,"count":84,"max":[55],"min":[0],"type":"SCALAR"},{"bufferView":60,"componentType":5126,"count":24,"max":[1.1453125476837158,0.4078125059604645,0.3062500059604645],"min":[0.823437511920929,0.09218750149011612,0.24375000596046448],"type":"VEC3"},{"bufferView":61,"componentType":5126,"count":24,"max":[1,1,1],"min":[-1,-1,-1],"type":"VEC3"},{"bufferView":62,"componentType":5126,"count":24,"max":[0.7421875,0.7421875],"min":[0.015625,0.0625],"type":"VEC2"},{"bufferView":63,"componentType":5123,"count":36,"max":[23],"min":[0],"type":"SCALAR"},{"bufferView":64,"componentType":5126,"count":24,"max":[1.3125,0.453125,0.15625],"min":[0.9234374761581421,0.40625,-0.140625],"type":"VEC3"},{"bufferView":65,"componentType":5126,"count":24,"max":[1,1,1],"min":[-1,-1,-1],"type":"VEC3"},{"bufferView":66,"componentType":5126,"count":24,"max":[0.7421875,0.7109375],"min":[0.140625,0],"type":"VEC2"},{"bufferView":67,"componentType":5123,"count":36,"max":[23],"min":[0],"type":"SCALAR"},{"bufferView":68,"componentType":5126,"count":120,"max":[0.953125,0.84375,1.265625],"min":[0.390625,0.34375,0.5],"type":"VEC3"},{"bufferView":69,"componentType":5126,"count":120,"max":[1,1,1],"min":[-1,-1,-1],"type":"VEC3"},{"bufferView":70,"componentType":5126,"count":120,"max":[0.7402417063713074,0.751171886920929],"min":[0,0],"type":"VEC2"},{"bufferView":71,"componentType":5123,"count":180,"max":[119],"min":[0],"type":"SCALAR"},{"bufferView":72,"componentType":5126,"count":136,"max":[1.46875,0.4375,0.5328124761581421],"min":[1.09375,-0.0625,-0.8500000238418579],"type":"VEC3"},{"bufferView":73,"componentType":5126,"count":136,"max":[1,1,1],"min":[-1,-1,-0.9230769276618958],"type":"VEC3"},{"bufferView":74,"componentType":5126,"count":136,"max":[0.7471992373466492,0.7421875],"min":[0,0],"type":"VEC2"},{"bufferView":75,"componentType":5123,"count":204,"max":[135],"min":[0],"type":"SCALAR"},{"bufferView":76,"componentType":5126,"count":40,"max":[0.4921875,0.19218750298023224,0.746874988079071],"min":[-0.046875,0.11406250298023224,-0.5874999761581421],"type":"VEC3"},{"bufferView":77,"componentType":5126,"count":40,"max":[1,1,1],"min":[-1,-1,-1],"type":"VEC3"},{"bufferView":78,"componentType":5126,"count":40,"max":[0.84375,0.5234375],"min":[0.1484375,0.046875],"type":"VEC2"},{"bufferView":79,"componentType":5123,"count":60,"max":[39],"min":[0],"type":"SCALAR"},{"bufferView":80,"componentType":5126,"count":24,"max":[-0.01875000074505806,0.08437500149011612,0.03125],"min":[-0.34687501192092896,-0.02500000037252903,-0.3125],"type":"VEC3"},{"bufferView":81,"componentType":5126,"count":24,"max":[1,1,1],"min":[-1,-1,-1],"type":"VEC3"},{"bufferView":82,"componentType":5126,"count":24,"max":[0.734375,0.703125],"min":[0.0546875,0.1171875],"type":"VEC2"},{"bufferView":83,"componentType":5123,"count":36,"max":[23],"min":[0],"type":"SCALAR"}],"materials":[{"pbrMetallicRoughness":{"metallicFactor":0,"roughnessFactor":1,"baseColorTexture":{"index":0}},"alphaMode":"MASK","alphaCutoff":0.05,"doubleSided":true}],"textures":[{"sampler":0,"source":0,"name":"spaceship"}],"samplers":[{"magFilter":9728,"minFilter":9728,"wrapS":33071,"wrapT":33071}],"images":[{"mimeType":"image/png","uri":"data:image/png;base64,"}],"meshes":[{"primitives":[{"mode":4,"attributes":{"POSITION":0,"NORMAL":1,"TEXCOORD_0":2},"indices":3,"material":0}]},{"primitives":[{"mode":4,"attributes":{"POSITION":4,"NORMAL":5,"TEXCOORD_0":6},"indices":7,"material":0}]},{"primitives":[{"mode":4,"attributes":{"POSITION":8,"NORMAL":9,"TEXCOORD_0":10},"indices":11,"material":0}]},{"primitives":[{"mode":4,"attributes":{"POSITION":12,"NORMAL":13,"TEXCOORD_0":14},"indices":15,"material":0}]},{"primitives":[{"mode":4,"attributes":{"POSITION":16,"NORMAL":17,"TEXCOORD_0":18},"indices":19,"material":0}]},{"primitives":[{"mode":4,"attributes":{"POSITION":20,"NORMAL":21,"TEXCOORD_0":22},"indices":23,"material":0}]},{"primitives":[{"mode":4,"attributes":{"POSITION":24,"NORMAL":25,"TEXCOORD_0":26},"indices":27,"material":0}]},{"primitives":[{"mode":4,"attributes":{"POSITION":28,"NORMAL":29,"TEXCOORD_0":30},"indices":31,"material":0}]},{"primitives":[{"mode":4,"attributes":{"POSITION":32,"NORMAL":33,"TEXCOORD_0":34},"indices":35,"material":0}]},{"primitives":[{"mode":4,"attributes":{"POSITION":36,"NORMAL":37,"TEXCOORD_0":38},"indices":39,"material":0}]},{"primitives":[{"mode":4,"attributes":{"POSITION":40,"NORMAL":41,"TEXCOORD_0":42},"indices":43,"material":0}]},{"primitives":[{"mode":4,"attributes":{"POSITION":44,"NORMAL":45,"TEXCOORD_0":46},"indices":47,"material":0}]},{"primitives":[{"mode":4,"attributes":{"POSITION":48,"NORMAL":49,"TEXCOORD_0":50},"indices":51,"material":0}]},{"primitives":[{"mode":4,"attributes":{"POSITION":52,"NORMAL":53,"TEXCOORD_0":54},"indices":55,"material":0}]},{"primitives":[{"mode":4,"attributes":{"POSITION":56,"NORMAL":57,"TEXCOORD_0":58},"indices":59,"material":0}]},{"primitives":[{"mode":4,"attributes":{"POSITION":60,"NORMAL":61,"TEXCOORD_0":62},"indices":63,"material":0}]},{"primitives":[{"mode":4,"attributes":{"POSITION":64,"NORMAL":65,"TEXCOORD_0":66},"indices":67,"material":0}]},{"primitives":[{"mode":4,"attributes":{"POSITION":68,"NORMAL":69,"TEXCOORD_0":70},"indices":71,"material":0}]},{"primitives":[{"mode":4,"attributes":{"POSITION":72,"NORMAL":73,"TEXCOORD_0":74},"indices":75,"material":0}]},{"primitives":[{"mode":4,"attributes":{"POSITION":76,"NORMAL":77,"TEXCOORD_0":78},"indices":79,"material":0}]},{"primitives":[{"mode":4,"attributes":{"POSITION":80,"NORMAL":81,"TEXCOORD_0":82},"indices":83,"material":0}]}]}