{"asset":{"version":"2.0","generator":"Blockbench 4.7.4 glTF exporter"},"scenes":[{"nodes":[4],"name":"blockbench_export"}],"scene":0,"nodes":[{"name":"cylinder","mesh":0},{"name":"base","children":[0]},{"name":"cylinder","mesh":1},{"name":"plate","children":[2]},{"children":[1,3]}],"bufferViews":[{"buffer":0,"byteOffset":0,"byteLength":4224,"target":34962,"byteStride":12},{"buffer":0,"byteOffset":4224,"byteLength":4224,"target":34962,"byteStride":12},{"buffer":0,"byteOffset":8448,"byteLength":2816,"target":34962,"byteStride":8},{"buffer":0,"byteOffset":11264,"byteLength":960,"target":34963},{"buffer":0,"byteOffset":12224,"byteLength":5760,"target":34962,"byteStride":12},{"buffer":0,"byteOffset":17984,"byteLength":5760,"target":34962,"byteStride":12},{"buffer":0,"byteOffset":23744,"byteLength":3840,"target":34962,"byteStride":8},{"buffer":0,"byteOffset":27584,"byteLength":1344,"target":34963},{"buffer":0,"byteOffset":28928,"byteLength":12},{"buffer":0,"byteOffset":28940,"byteLength":48},{"buffer":0,"byteOffset":28988,"byteLength":8},{"buffer":0,"byteOffset":28996,"byteLength":24},{"buffer":0,"byteOffset":29020,"byteLength":12},{"buffer":0,"byteOffset":29032,"byteLength":48},{"buffer":0,"byteOffset":29080,"byteLength":8},{"buffer":0,"byteOffset":29088,"byteLength":24}],"buffers":[{"byteLength":29112,"uri":"data:application/octet-stream;base64,"}],"accessors":[{"bufferView":0,"componentType":5126,"count":352,"max":[0.5,0.125,0.5],"min":[-0.5,0,-0.5],"type":"VEC3"},{"bufferView":1,"componentType":5126,"count":352,"max":[0.9578262567520142,1,0.9578262567520142],"min":[-0.9578262567520142,-1,-0.9578262567520142],"type":"VEC3"},{"bufferView":2,"componentType":5126,"count":352,"max":[0.7583391666412354,0.6461105346679688],"min":[0.004687500186264515,0],"type":"VEC2"},{"bufferView":3,"componentType":5123,"count":480,"max":[351],"min":[0],"type":"SCALAR"},{"bufferView":4,"componentType":5126,"count":480,"max":[0.4745318591594696,0.20624999701976776,0.4745318591594696],"min":[-0.4745318591594696,-0.0065488070249557495,-0.4745318591594696],"type":"VEC3"},{"bufferView":5,"componentType":5126,"count":480,"max":[1,1,1],"min":[-1,-1,-1],"type":"VEC3"},{"bufferView":6,"componentType":5126,"count":480,"max":[0.7652875185012817,0.734375],"min":[0,0],"type":"VEC2"},{"bufferView":7,"componentType":5123,"count":672,"max":[479],"min":[0],"type":"SCALAR"},{"bufferView":8,"componentType":5126,"count":3,"max":[4],"min":[0],"type":"SCALAR"},{"bufferView":9,"componentType":5126,"count":3,"max":[0,1,0,1],"min":[0,0,0,6.123234262925839e-17],"type":"VEC4"},{"bufferView":10,"componentType":5126,"count":2,"max":[4],"min":[0],"type":"SCALAR"},{"bufferView":11,"componentType":5126,"count":2,"max":[0,0,0],"min":[0,-0.07500000298023224,0],"type":"VEC3"},{"bufferView":12,"componentType":5126,"count":3,"max":[0.25],"min":[0],"type":"SCALAR"},{"bufferView":13,"componentType":5126,"count":3,"max":[0,1,0,1],"min":[0,0,0,6.123234262925839e-17],"type":"VEC4"},{"bufferView":14,"componentType":5126,"count":2,"max":[0.25],"min":[0],"type":"SCALAR"},{"bufferView":15,"componentType":5126,"count":2,"max":[0,0,0],"min":[0,-0.07500000298023224,0],"type":"VEC3"}],"materials":[{"pbrMetallicRoughness":{"metallicFactor":0,"roughnessFactor":1,"baseColorTexture":{"index":0}},"alphaMode":"MASK","alphaCutoff":0.05,"doubleSided":true}],"textures":[{"sampler":0,"source":0,"name":"mine.png"}],"samplers":[{"magFilter":9728,"minFilter":9728,"wrapS":33071,"wrapT":33071}],"images":[{"mimeType":"image/png","uri":"data:image/png;base64,"}],"meshes":[{"primitives":[{"mode":4,"attributes":{"POSITION":0,"NORMAL":1,"TEXCOORD_0":2},"indices":3,"material":0}]},{"primitives":[{"mode":4,"attributes":{"POSITION":4,"NORMAL":5,"TEXCOORD_0":6},"indices":7,"material":0}]}],"animations":[{"name":"priming","samplers":[{"input":8,"output":9,"interpolation":"LINEAR"},{"input":10,"output":11,"interpolation":"LINEAR"}],"channels":[{"sampler":0,"target":{"node":3,"path":"rotation"}},{"sampler":1,"target":{"node":3,"path":"translation"}}]},{"name":"exploding","samplers":[{"input":12,"output":13,"interpolation":"LINEAR"},{"input":14,"output":15,"interpolation":"LINEAR"}],"channels":[{"sampler":0,"target":{"node":3,"path":"rotation"}},{"sampler":1,"target":{"node":3,"path":"translation"}}]}]}