{"asset":{"version":"2.0","generator":"Blockbench 4.7.4 glTF exporter"},"scenes":[{"nodes":[5],"name":"blockbench_export"}],"scene":0,"nodes":[{"rotation":[-0.7071067811865475,0,0,0.7071067811865476],"translation":[-1.3566122707120607e-16,0.21874999999999978,0.8396368146479319],"name":"Base","mesh":0},{"rotation":[0,0,0.7071067811865475,0.7071067811865476],"translation":[-1.0224370677704175e-16,0,0.027136814647934826],"name":"Handle","mesh":1},{"translation":[9.248588722467221e-17,0.5000000000000002,0.3306756853520657],"name":"Handle","children":[0,1]},{"rotation":[-0.7071067811865475,0,0,0.7071067811865476],"translation":[-4.270088556250602e-18,0.25,0.05548878205128216],"name":"Drill","mesh":2},{"translation":[7.354041402431593e-18,0.5000000000000003,0.00024038461538224837],"name":"Head","children":[3]},{"children":[2,4]}],"bufferViews":[{"buffer":0,"byteOffset":0,"byteLength":2112,"target":34962,"byteStride":12},{"buffer":0,"byteOffset":2112,"byteLength":2112,"target":34962,"byteStride":12},{"buffer":0,"byteOffset":4224,"byteLength":1408,"target":34962,"byteStride":8},{"buffer":0,"byteOffset":5632,"byteLength":480,"target":34963},{"buffer":0,"byteOffset":6112,"byteLength":2496,"target":34962,"byteStride":12},{"buffer":0,"byteOffset":8608,"byteLength":2496,"target":34962,"byteStride":12},{"buffer":0,"byteOffset":11104,"byteLength":1664,"target":34962,"byteStride":8},{"buffer":0,"byteOffset":12768,"byteLength":576,"target":34963},{"buffer":0,"byteOffset":13344,"byteLength":1344,"target":34962,"byteStride":12},{"buffer":0,"byteOffset":14688,"byteLength":1344,"target":34962,"byteStride":12},{"buffer":0,"byteOffset":16032,"byteLength":896,"target":34962,"byteStride":8},{"buffer":0,"byteOffset":16928,"byteLength":288,"target":34963},{"buffer":0,"byteOffset":17216,"byteLength":68},{"buffer":0,"byteOffset":17284,"byteLength":272}],"buffers":[{"byteLength":17556,"uri":"data:application/octet-stream;base64,"}],"accessors":[{"bufferView":0,"componentType":5126,"count":176,"max":[0.5,1.09375,0.28125],"min":[-0.5,0.8125,-0.71875],"type":"VEC3"},{"bufferView":1,"componentType":5126,"count":176,"max":[1,1,1],"min":[-1,-1,-1],"type":"VEC3"},{"bufferView":2,"componentType":5126,"count":176,"max":[1,1],"min":[0,0],"type":"VEC2"},{"bufferView":3,"componentType":5123,"count":240,"max":[175],"min":[0],"type":"SCALAR"},{"bufferView":4,"componentType":5126,"count":208,"max":[0.375,0.13529902696609497,0.375],"min":[-0.375,-0.13529902696609497,-1.1102230246251565e-16],"type":"VEC3"},{"bufferView":5,"componentType":5126,"count":208,"max":[0.933948814868927,0.9124869704246521,0.933948814868927],"min":[-0.933948814868927,-0.9124869704246521,-1],"type":"VEC3"},{"bufferView":6,"componentType":5126,"count":208,"max":[0.9704423546791077,0.8412174582481384],"min":[0.5003498792648315,0.5756247639656067],"type":"VEC2"},{"bufferView":7,"componentType":5123,"count":288,"max":[207],"min":[0],"type":"SCALAR"},{"bufferView":8,"componentType":5126,"count":112,"max":[0.5,0.9635416865348816,0.25],"min":[-0.5,-0.02083333395421505,-0.75],"type":"VEC3"},{"bufferView":9,"componentType":5126,"count":112,"max":[1,0.48953476548194885,1],"min":[-1,-1,-1],"type":"VEC3"},{"bufferView":10,"componentType":5126,"count":112,"max":[0.3328776955604553,0.875],"min":[0,0],"type":"VEC2"},{"bufferView":11,"componentType":5123,"count":144,"max":[111],"min":[0],"type":"SCALAR"},{"bufferView":12,"componentType":5126,"count":17,"max":[1],"min":[0],"type":"SCALAR"},{"bufferView":13,"componentType":5126,"count":17,"max":[0,0,1,1],"min":[0,0,-1,6.123234262925839e-17],"type":"VEC4"}],"materials":[{"pbrMetallicRoughness":{"metallicFactor":0,"roughnessFactor":1,"baseColorTexture":{"index":0}},"alphaMode":"MASK","alphaCutoff":0.05,"doubleSided":true}],"textures":[{"sampler":0,"source":0,"name":"drill"}],"samplers":[{"magFilter":9728,"minFilter":9728,"wrapS":33071,"wrapT":33071}],"images":[{"mimeType":"image/png","uri":"data:image/png;base64,"}],"meshes":[{"primitives":[{"mode":4,"attributes":{"POSITION":0,"NORMAL":1,"TEXCOORD_0":2},"indices":3,"material":0}]},{"primitives":[{"mode":4,"attributes":{"POSITION":4,"NORMAL":5,"TEXCOORD_0":6},"indices":7,"material":0}]},{"primitives":[{"mode":4,"attributes":{"POSITION":8,"NORMAL":9,"TEXCOORD_0":10},"indices":11,"material":0}]}],"animations":[{"name":"drill_attack.drill","samplers":[{"input":12,"output":13,"interpolation":"LINEAR"}],"channels":[{"sampler":0,"target":{"node":4,"path":"rotation"}}]}]}